<?xml version="1.0" encoding="UTF-8"?>
<svg version="1.1" xmlns="http://www.w3.org/2000/svg" width="64" height="64">
<path d="M0 0 C0.91765137 -0.00315216 1.83530273 -0.00630432 2.78076172 -0.009552 C4.27760498 -0.00651566 4.27760498 -0.00651566 5.8046875 -0.00341797 C6.82191895 -0.00437469 7.83915039 -0.00533142 8.88720703 -0.00631714 C11.04264386 -0.00699908 13.19808272 -0.00514382 15.35351562 -0.00097656 C18.66541121 0.00437148 21.97717117 -0.0009211 25.2890625 -0.00732422 C27.37760447 -0.00666344 29.46614635 -0.00538228 31.5546875 -0.00341797 C32.55258301 -0.0054422 33.55047852 -0.00746643 34.57861328 -0.009552 C35.49626465 -0.00639984 36.41391602 -0.00324768 37.359375 0 C38.17132324 0.00079559 38.98327148 0.00159119 39.81982422 0.00241089 C41.6796875 0.12939453 41.6796875 0.12939453 42.6796875 1.12939453 C42.78075624 4.00203509 42.81938422 6.85013081 42.8125 9.72314453 C42.81345673 10.58500366 42.81441345 11.44686279 42.81539917 12.33483887 C42.816081 14.16072665 42.81422654 15.98661685 42.81005859 17.8125 C42.80471036 20.61740531 42.81000349 23.42215049 42.81640625 26.22705078 C42.81574547 27.99658239 42.81446431 29.76611389 42.8125 31.53564453 C42.81452423 32.38042358 42.81654846 33.22520264 42.81863403 34.09558105 C42.79463781 40.01444422 42.79463781 40.01444422 41.6796875 41.12939453 C40.24228397 41.2275344 38.80012423 41.25737733 37.359375 41.25878906 C36.44172363 41.26194122 35.52407227 41.26509338 34.57861328 41.26834106 C33.58071777 41.26631683 32.58282227 41.2642926 31.5546875 41.26220703 C30.53745605 41.26316376 29.52022461 41.26412048 28.47216797 41.2651062 C26.31673114 41.26578814 24.16129228 41.26393288 22.00585938 41.25976562 C18.69396379 41.25441758 15.38220383 41.25971016 12.0703125 41.26611328 C9.98177053 41.2654525 7.89322865 41.26417135 5.8046875 41.26220703 C4.30784424 41.26524338 4.30784424 41.26524338 2.78076172 41.26834106 C1.86311035 41.2651889 0.94545898 41.26203674 0 41.25878906 C-0.81194824 41.25799347 -1.62389648 41.25719788 -2.46044922 41.25637817 C-4.3203125 41.12939453 -4.3203125 41.12939453 -5.3203125 40.12939453 C-5.42138124 37.25675397 -5.46000922 34.40865825 -5.453125 31.53564453 C-5.45408173 30.6737854 -5.45503845 29.81192627 -5.45602417 28.9239502 C-5.456706 27.09806241 -5.45485154 25.27217222 -5.45068359 23.44628906 C-5.44533536 20.64138375 -5.45062849 17.83663858 -5.45703125 15.03173828 C-5.45637047 13.26220668 -5.45508931 11.49267517 -5.453125 9.72314453 C-5.45514923 8.87836548 -5.45717346 8.03358643 -5.45925903 7.16320801 C-5.43023957 0.00532086 -5.43023957 0.00532086 0 0 Z " fill="#37CFED" transform="translate(13.3203125,11.87060546875)"/>
<path d="M0 0 C1.16662926 -0.0049926 1.16662926 -0.0049926 2.35682678 -0.01008606 C3.99658622 -0.01513299 5.63635585 -0.01749508 7.27612305 -0.01733398 C9.77344798 -0.019521 12.27033118 -0.03770159 14.76757812 -0.05664062 C16.36588392 -0.05957499 17.96419179 -0.0615595 19.5625 -0.0625 C20.67370461 -0.07327827 20.67370461 -0.07327827 21.80735779 -0.08427429 C26.20202767 -0.06507289 29.76300357 0.54608 33.84765625 2.16796875 C33.51765625 3.15796875 33.18765625 4.14796875 32.84765625 5.16796875 C28.46587632 6.24554372 24.18077078 6.32921787 19.6953125 6.3359375 C18.52868324 6.3409301 18.52868324 6.3409301 17.33848572 6.34602356 C15.69872628 6.35107049 14.05895665 6.35343258 12.41918945 6.35327148 C9.92186452 6.3554585 7.42498132 6.37363909 4.92773438 6.39257812 C3.32942858 6.39551249 1.73112071 6.397497 0.1328125 6.3984375 C-0.97839211 6.40921577 -0.97839211 6.40921577 -2.11204529 6.42021179 C-6.50671517 6.40101039 -10.06769107 5.7898575 -14.15234375 4.16796875 C-13.82234375 3.17796875 -13.49234375 2.18796875 -13.15234375 1.16796875 C-8.77056382 0.09039378 -4.48545828 0.00671963 0 0 Z " fill="#000000" transform="translate(22.15234375,57.83203125)"/>
<path d="M0 0 C1.93166016 0.01740234 1.93166016 0.01740234 3.90234375 0.03515625 C5.19269531 0.04417969 6.48304687 0.05320312 7.8125 0.0625 C8.81152344 0.07410156 9.81054688 0.08570313 10.83984375 0.09765625 C10.46484375 2.03515625 10.46484375 2.03515625 9.83984375 4.09765625 C6.88319856 5.57597885 4.09754638 5.15798408 0.83984375 5.09765625 C1.16984375 6.08765625 1.49984375 7.07765625 1.83984375 8.09765625 C2.43796875 7.89140625 3.03609375 7.68515625 3.65234375 7.47265625 C5.83984375 7.09765625 5.83984375 7.09765625 8.83984375 9.09765625 C9.58234375 8.25203125 10.32484375 7.40640625 11.08984375 6.53515625 C11.99734375 5.73078125 12.90484375 4.92640625 13.83984375 4.09765625 C16.15234375 4.28515625 16.15234375 4.28515625 17.83984375 5.09765625 C17.25589169 8.60915466 16.0070473 10.38797383 13.52734375 12.91015625 C12.93308594 13.53535156 12.33882812 14.16054688 11.7265625 14.8046875 C9.83984375 16.09765625 9.83984375 16.09765625 7.75 15.92578125 C5.19574878 14.81841671 3.68917341 13.14512837 1.83984375 11.09765625 C1.80246094 11.78472656 1.76507812 12.47179688 1.7265625 13.1796875 C1.66082031 14.08074219 1.59507813 14.98179688 1.52734375 15.91015625 C1.46933594 16.80347656 1.41132813 17.69679688 1.3515625 18.6171875 C0.77244183 21.4243755 0.11782955 22.40463471 -2.16015625 24.09765625 C-2.82015625 24.09765625 -3.48015625 24.09765625 -4.16015625 24.09765625 C-4.18902861 20.28517199 -4.20691117 16.47271555 -4.22265625 12.66015625 C-4.23103516 11.57154297 -4.23941406 10.48292969 -4.24804688 9.36132812 C-4.25126953 8.32685547 -4.25449219 7.29238281 -4.2578125 6.2265625 C-4.26304932 5.2682251 -4.26828613 4.3098877 -4.27368164 3.32250977 C-4.09354641 -0.20775334 -3.62277429 0.11195223 0 0 Z " fill="#72DDF2" transform="translate(12.16015625,11.90234375)"/>
<path d="M0 0 C0.02685095 2.47923801 0.04676547 4.9581884 0.0625 7.4375 C0.07087891 8.14455078 0.07925781 8.85160156 0.08789062 9.58007812 C0.09653588 11.38693559 0.05220011 13.19387603 0 15 C-1 16 -1 16 -2.76586914 16.11352539 C-3.51473389 16.10828857 -4.26359863 16.10305176 -5.03515625 16.09765625 C-5.84404297 16.09443359 -6.65292969 16.09121094 -7.48632812 16.08789062 C-8.33646484 16.07951172 -9.18660156 16.07113281 -10.0625 16.0625 C-10.91650391 16.05798828 -11.77050781 16.05347656 -12.65039062 16.04882812 C-14.76695663 16.03700373 -16.88348685 16.01906769 -19 16 C-18.625 14.0625 -18.625 14.0625 -18 12 C-15.56612247 10.78306124 -13.58161154 10.68040104 -10.875 10.4375 C-9.50988281 10.31181641 -9.50988281 10.31181641 -8.1171875 10.18359375 C-7.41851562 10.12300781 -6.71984375 10.06242187 -6 10 C-5.87882812 9.36191406 -5.75765625 8.72382812 -5.6328125 8.06640625 C-5.38144531 6.82697266 -5.38144531 6.82697266 -5.125 5.5625 C-4.96257813 4.73878906 -4.80015625 3.91507813 -4.6328125 3.06640625 C-4.42398438 2.38449219 -4.21515625 1.70257813 -4 1 C-2 0 -2 0 0 0 Z " fill="#2FB1CB" transform="translate(56,37)"/>
<path d="M0 0 C2.25 0.25 2.25 0.25 4 1 C3.41604794 4.51149841 2.16720355 6.29031758 -0.3125 8.8125 C-0.90675781 9.43769531 -1.50101563 10.06289063 -2.11328125 10.70703125 C-4 12 -4 12 -6.05859375 11.890625 C-9.34309588 10.38385139 -10.82592549 7.83837505 -13 5 C-12.34 4.34 -11.68 3.68 -11 3 C-9.0625 3.375 -9.0625 3.375 -7 4 C-6.01 4 -5.02 4 -4 4 C-3.360625 3.319375 -2.72125 2.63875 -2.0625 1.9375 C-1.381875 1.298125 -0.70125 0.65875 0 0 Z " fill="#F54155" transform="translate(26,16)"/>
<path d="M0 0 C1.48831242 0.00667405 2.97660807 0.01863442 4.46484375 0.03515625 C5.22345703 0.03966797 5.98207031 0.04417969 6.76367188 0.04882812 C8.64326246 0.06064945 10.52281274 0.07858547 12.40234375 0.09765625 C12.96484375 2.03515625 12.96484375 2.03515625 13.40234375 4.09765625 C12.40234375 5.09765625 12.40234375 5.09765625 8.8046875 5.1953125 C7.31637508 5.18863845 5.82807943 5.17667808 4.33984375 5.16015625 C3.58123047 5.15564453 2.82261719 5.15113281 2.04101562 5.14648438 C0.16142504 5.13466305 -1.71812524 5.11672703 -3.59765625 5.09765625 C-4.16015625 3.16015625 -4.16015625 3.16015625 -4.59765625 1.09765625 C-3.59765625 0.09765625 -3.59765625 0.09765625 0 0 Z " fill="#018BAA" transform="translate(34.59765625,40.90234375)"/>
<path d="M0 0 C1.48831242 0.00667405 2.97660807 0.01863442 4.46484375 0.03515625 C5.22345703 0.03966797 5.98207031 0.04417969 6.76367188 0.04882812 C8.64326246 0.06064945 10.52281274 0.07858547 12.40234375 0.09765625 C12.96484375 2.03515625 12.96484375 2.03515625 13.40234375 4.09765625 C12.40234375 5.09765625 12.40234375 5.09765625 8.8046875 5.1953125 C7.31637508 5.18863845 5.82807943 5.17667808 4.33984375 5.16015625 C3.58123047 5.15564453 2.82261719 5.15113281 2.04101562 5.14648438 C0.16142504 5.13466305 -1.71812524 5.11672703 -3.59765625 5.09765625 C-4.16015625 3.16015625 -4.16015625 3.16015625 -4.59765625 1.09765625 C-3.59765625 0.09765625 -3.59765625 0.09765625 0 0 Z " fill="#018BAA" transform="translate(34.59765625,31.90234375)"/>
<path d="M0 0 C1.48831242 0.00667405 2.97660807 0.01863442 4.46484375 0.03515625 C5.22345703 0.03966797 5.98207031 0.04417969 6.76367188 0.04882812 C8.64326246 0.06064945 10.52281274 0.07858547 12.40234375 0.09765625 C12.96484375 2.03515625 12.96484375 2.03515625 13.40234375 4.09765625 C12.40234375 5.09765625 12.40234375 5.09765625 8.8046875 5.1953125 C7.31637508 5.18863845 5.82807943 5.17667808 4.33984375 5.16015625 C3.58123047 5.15564453 2.82261719 5.15113281 2.04101562 5.14648438 C0.16142504 5.13466305 -1.71812524 5.11672703 -3.59765625 5.09765625 C-4.16015625 3.16015625 -4.16015625 3.16015625 -4.59765625 1.09765625 C-3.59765625 0.09765625 -3.59765625 0.09765625 0 0 Z " fill="#018BAA" transform="translate(34.59765625,22.90234375)"/>
<path d="M0 0 C4.62 0 9.24 0 14 0 C13.67 1.32 13.34 2.64 13 4 C11.35 4.33 9.7 4.66 8 5 C8 4.01 8 3.02 8 2 C3.545 2.495 3.545 2.495 -1 3 C-0.67 2.01 -0.34 1.02 0 0 Z " fill="#70DDF2" transform="translate(9,12)"/>
<path d="M0 0 C1.4540625 0.0309375 1.4540625 0.0309375 2.9375 0.0625 C2.9375 1.0525 2.9375 2.0425 2.9375 3.0625 C1.6175 3.0625 0.2975 3.0625 -1.0625 3.0625 C-1.0625 5.0425 -1.0625 7.0225 -1.0625 9.0625 C-2.0525 9.0625 -3.0425 9.0625 -4.0625 9.0625 C-4.16015625 2.91015625 -4.16015625 2.91015625 -4.0625 1.0625 C-3.0625 0.0625 -3.0625 0.0625 0 0 Z " fill="#F5FCFE" transform="translate(14.0625,13.9375)"/>
<path d="M0 0 C1.4540625 0.0309375 1.4540625 0.0309375 2.9375 0.0625 C3.5 2 3.5 2 3.9375 4.0625 C2.9375 5.0625 2.9375 5.0625 -0.125 5.125 C-1.094375 5.104375 -2.06375 5.08375 -3.0625 5.0625 C-3.625 3.125 -3.625 3.125 -4.0625 1.0625 C-3.0625 0.0625 -3.0625 0.0625 0 0 Z " fill="#038EAD" transform="translate(21.0625,40.9375)"/>
<path d="M0 0 C1.4540625 0.0309375 1.4540625 0.0309375 2.9375 0.0625 C3.5 2 3.5 2 3.9375 4.0625 C2.9375 5.0625 2.9375 5.0625 -0.125 5.125 C-1.094375 5.104375 -2.06375 5.08375 -3.0625 5.0625 C-3.625 3.125 -3.625 3.125 -4.0625 1.0625 C-3.0625 0.0625 -3.0625 0.0625 0 0 Z " fill="#038EAD" transform="translate(21.0625,31.9375)"/>
</svg>
